<?xml version="1.0" encoding="utf-8"?>
<svg version="1.1" xmlns:xlink="http://www.w3.org/1999/xlink" width="194px" height="110px" xmlns="http://www.w3.org/2000/svg">
  <g transform="matrix(1 0 0 1 -227 -1054 )">
    <path d="M 227 1054  L 421 1054  L 421 1164  L 227 1164  L 227 1054  " fill-rule="nonzero" fill="#cccccc" stroke="none" />
    <path d="M 235 1062  L 413 1062  L 413 1156  L 235 1156  L 235 1062  " fill-rule="nonzero" fill="#ffffff" stroke="none" />
    <path d="M 336.13 1087  C 331.51 1087  327.88 1083.37  327.88 1078.75  C 327.88 1074.13  331.51 1070.5  336.13 1070.5  C 340.75 1070.5  344.38 1074.13  344.38 1078.75  C 344.38 1083.37  340.75 1087  336.13 1087  " fill-rule="nonzero" fill="#cccccc" stroke="none" />
    <path d="M 238 1153  L 238 1104.6  L 281 1082.6  L 341.2 1123.0618556701  L 375.6 1095.8  L 410 1123.0618556701  L 410 1153  L 238 1153  " fill-rule="nonzero" fill="#169bd5" stroke="none" />
  </g>
</svg>