<?xml version="1.0" encoding="utf-8"?>
<svg version="1.1" xmlns:xlink="http://www.w3.org/1999/xlink" width="25px" height="21px" xmlns="http://www.w3.org/2000/svg">
  <g transform="matrix(1 0 0 1 -1245 -213 )">
    <path d="M 14.1764322916667 14.341796875  C 14.2740885416667 14.423828125  14.3229166666667 14.5286458333333  14.3229166666667 14.65625  L 14.3229166666667 16.84375  C 14.3229166666667 16.9713541666667  14.2740885416667 17.076171875  14.1764322916667 17.158203125  C 14.0787760416667 17.240234375  13.9539930555556 17.28125  13.8020833333333 17.28125  L 11.1979166666667 17.28125  C 11.0460069444444 17.28125  10.9212239583333 17.240234375  10.8235677083333 17.158203125  C 10.7259114583333 17.076171875  10.6770833333333 16.9713541666667  10.6770833333333 16.84375  L 10.6770833333333 14.65625  C 10.6770833333333 14.5286458333333  10.7259114583333 14.423828125  10.8235677083333 14.341796875  C 10.9212239583333 14.259765625  11.0460069444444 14.21875  11.1979166666667 14.21875  L 13.8020833333333 14.21875  C 13.9539930555556 14.21875  14.0787760416667 14.259765625  14.1764322916667 14.341796875  Z M 16.7073567708333 4.9423828125  C 17.8955078125 5.75813802083333  18.4895833333333 6.73567708333333  18.4895833333333 7.875  C 18.4895833333333 8.33072916666667  18.408203125 8.74088541666667  18.2454427083333 9.10546875  C 18.0826822916667 9.47005208333333  17.8358289930556 9.78450520833333  17.5048828125 10.048828125  C 17.1739366319444 10.3131510416667  16.8918185763889 10.513671875  16.6585286458333 10.650390625  C 16.4252387152778 10.787109375  16.1024305555556 10.951171875  15.6901041666667 11.142578125  C 15.3428819444444 11.306640625  15.0906032986111 11.4342447916667  14.9332682291667 11.525390625  C 14.7759331597222 11.6165364583333  14.6348741319444 11.7259114583333  14.5100911458333 11.853515625  C 14.3853081597222 11.9811197916667  14.3229166666667 12.11328125  14.3229166666667 12.25  L 14.3229166666667 12.6875  C 14.3229166666667 12.8151041666667  14.2740885416667 12.919921875  14.1764322916667 13.001953125  C 14.0787760416667 13.083984375  13.9539930555556 13.125  13.8020833333333 13.125  L 11.1979166666667 13.125  C 11.0460069444444 13.125  10.9212239583333 13.083984375  10.8235677083333 13.001953125  C 10.7259114583333 12.919921875  10.6770833333333 12.8151041666667  10.6770833333333 12.6875  L 10.6770833333333 11.7578125  C 10.6770833333333 11.4388020833333  10.7340494791667 11.1448567708333  10.8479817708333 10.8759765625  C 10.9619140625 10.6070963541667  11.0921223958333 10.390625  11.2386067708333 10.2265625  C 11.3850911458333 10.0625  11.5966796875 9.90071614583333  11.8733723958333 9.7412109375  C 12.1500651041667 9.58170572916667  12.3725043402778 9.46549479166667  12.5406901041667 9.392578125  C 12.7088758680556 9.31966145833333  12.9503038194444 9.22395833333333  13.2649739583333 9.10546875  C 13.8400607638889 8.87760416666666  14.2469618055556 8.681640625  14.4856770833333 8.517578125  C 14.7243923611111 8.353515625  14.84375 8.13020833333333  14.84375 7.84765625  C 14.84375 7.46484375  14.6077473958333 7.13899739583333  14.1357421875 6.8701171875  C 13.6637369791667 6.60123697916667  13.1456163194444 6.466796875  12.5813802083333 6.466796875  C 11.9737413194444 6.466796875  11.4583333333333 6.58984375  11.03515625 6.8359375  C 10.7204861111111 7.01822916666667  10.2864583333333 7.396484375  9.73307291666667 7.970703125  C 9.63541666666667 8.080078125  9.49978298611111 8.134765625  9.326171875 8.134765625  C 9.20681423611111 8.134765625  9.10373263888889 8.107421875  9.01692708333333 8.052734375  L 7.25911458333333 6.931640625  C 7.15060763888889 6.86783854166667  7.08550347222222 6.77669270833333  7.06380208333333 6.658203125  C 7.04210069444445 6.53971354166667  7.06922743055556 6.43489583333333  7.14518229166667 6.34375  C 8.46896701388889 4.59375  10.3624131944444 3.71875  12.8255208333333 3.71875  C 14.2252604166667 3.71875  15.5192057291667 4.12662760416667  16.7073567708333 4.9423828125  Z M 16.5445963541667 2.447265625  C 15.2587890625 1.982421875  13.9105902777778 1.75  12.5 1.75  C 11.0894097222222 1.75  9.7412109375 1.982421875  8.45540364583333 2.447265625  C 7.16959635416667 2.912109375  6.06282552083333 3.5341796875  5.13509114583333 4.3134765625  C 4.20735677083333 5.0927734375  3.466796875 6.0224609375  2.91341145833333 7.1025390625  C 2.36002604166667 8.1826171875  2.08333333333333 9.31510416666667  2.08333333333333 10.5  C 2.08333333333333 11.6848958333333  2.36002604166667 12.8173828125  2.91341145833333 13.8974609375  C 3.466796875 14.9775390625  4.20735677083333 15.9072265625  5.13509114583333 16.6865234375  C 6.06282552083333 17.4658203125  7.16959635416667 18.087890625  8.45540364583333 18.552734375  C 9.7412109375 19.017578125  11.0894097222222 19.25  12.5 19.25  C 13.9105902777778 19.25  15.2587890625 19.017578125  16.5445963541667 18.552734375  C 17.8304036458333 18.087890625  18.9371744791667 17.4658203125  19.8649088541667 16.6865234375  C 20.7926432291667 15.9072265625  21.533203125 14.9775390625  22.0865885416667 13.8974609375  C 22.6399739583333 12.8173828125  22.9166666666667 11.6848958333333  22.9166666666667 10.5  C 22.9166666666667 9.31510416666667  22.6399739583333 8.1826171875  22.0865885416667 7.1025390625  C 21.533203125 6.0224609375  20.7926432291667 5.0927734375  19.8649088541667 4.3134765625  C 18.9371744791667 3.5341796875  17.8304036458333 2.912109375  16.5445963541667 2.447265625  Z M 23.3235677083333 5.2294921875  C 24.4411892361111 6.83821614583333  25 8.59505208333333  25 10.5  C 25 12.4049479166667  24.4411892361111 14.1617838541667  23.3235677083333 15.7705078125  C 22.2059461805556 17.3792317708333  20.6895616319444 18.6529947916667  18.7744140625 19.591796875  C 16.8592664930556 20.5305989583333  14.7677951388889 21  12.5 21  C 10.2322048611111 21  8.14073350694444 20.5305989583333  6.2255859375 19.591796875  C 4.31043836805556 18.6529947916667  2.79405381944444 17.3792317708333  1.67643229166667 15.7705078125  C 0.558810763888889 14.1617838541667  0 12.4049479166667  0 10.5  C 0 8.59505208333333  0.558810763888889 6.83821614583333  1.67643229166667 5.2294921875  C 2.79405381944444 3.62076822916667  4.31043836805556 2.34700520833333  6.2255859375 1.408203125  C 8.14073350694444 0.469401041666665  10.2322048611111 0  12.5 0  C 14.7677951388889 0  16.8592664930556 0.469401041666665  18.7744140625 1.408203125  C 20.6895616319444 2.34700520833333  22.2059461805556 3.62076822916667  23.3235677083333 5.2294921875  Z " fill-rule="nonzero" fill="#008080" stroke="none" transform="matrix(1 0 0 1 1245 213 )" />
  </g>
</svg>