<?xml version="1.0" encoding="utf-8"?>
<svg version="1.1" xmlns:xlink="http://www.w3.org/1999/xlink" width="40px" height="33px" xmlns="http://www.w3.org/2000/svg">
  <g transform="matrix(1 0 0 1 -251 -508 )">
    <path d="M 18.6547085201794 24.75  L 19.9103139013453 24.75  L 22.5112107623318 22.03125  L 19.1031390134529 18.46875  L 16.5022421524664 21.1875  L 16.5022421524664 22.5  L 18.6547085201794 22.5  L 18.6547085201794 24.75  Z M 29.7533632286996 8.6484375  C 30.0074738415546 8.3828125  30.0149476831091 8.125  29.7757847533632 7.875  C 29.5366218236173 7.625  29.2899850523169 7.6328125  29.0358744394619 7.8984375  L 21.1883408071749 16.1015625  C 20.9342301943199 16.3671875  20.9267563527653 16.625  21.1659192825112 16.875  C 21.4050822122571 17.125  21.6517189835576 17.1171875  21.9058295964126 16.8515625  L 29.7533632286996 8.6484375  Z M 31.1210762331839 21.1171875  C 31.4200298953662 21.2421875  31.5695067264574 21.46875  31.5695067264574 21.796875  L 31.5695067264574 26.25  C 31.5695067264574 28.109375  30.9379671150972 29.69921875  29.6748878923767 31.01953125  C 28.4118086696562 32.33984375  26.8908819133034 33  25.1121076233184 33  L 6.45739910313901 33  C 4.67862481315396 33  3.1576980568012 32.33984375  1.89461883408072 31.01953125  C 0.631539611360239 29.69921875  0 28.109375  0 26.25  L 0 6.75  C 0 4.890625  0.631539611360239 3.30078125  1.89461883408072 1.98046875  C 3.1576980568012 0.660156249999997  4.67862481315396 0  6.45739910313901 0  L 25.1121076233184 0  C 26.0538116591928 0  26.9282511210762 0.195312499999998  27.7354260089686 0.585937499999998  C 27.9596412556054 0.695312499999998  28.0941704035874 0.874999999999999  28.1390134529148 1.125  C 28.1838565022422 1.390625  28.1165919282511 1.6171875  27.9372197309417 1.8046875  L 26.8385650224215 2.953125  C 26.6292974588939 3.171875  26.390134529148 3.234375  26.1210762331839 3.140625  C 25.7772795216741 3.046875  25.440956651719 3  25.1121076233184 3  L 6.45739910313901 3  C 5.47085201793722 3  4.62630792227205 3.3671875  3.9237668161435 4.1015625  C 3.22122571001495 4.8359375  2.86995515695067 5.71875  3 6.75  L 3 26.25  C 2.86995515695067 27.28125  3.22122571001495 28.1640625  3.9237668161435 28.8984375  C 4.62630792227205 29.6328125  5.47085201793722 30  6.45739910313901 30  L 25.1121076233184 30  C 26.0986547085202 30  26.9431988041854 29.6328125  27.6457399103139 28.8984375  C 28.3482810164425 28.1640625  28.6995515695067 27.28125  28.6995515695067 26.25  L 28.6995515695067 23.296875  C 28.6995515695067 23.09375  28.7668161434978 22.921875  28.9013452914798 22.78125  L 30.3363228699552 21.28125  C 30.5605381165919 21.046875  30.8221225710015 20.9921875  31.1210762331839 21.1171875  Z M 14.3497757847534 20.25  L 29.4170403587444 4.5  L 35.8744394618834 11.25  L 20.8071748878924 27  L 14.3497757847534 27  L 14.3497757847534 20.25  Z M 40 6  C 40 6.625  39.7907324364723 7.15625  39.372197309417 7.59375  L 37.3094170403587 9.75  L 30.8520179372197 3  L 32.914798206278 0.843749999999998  C 33.3333333333333 0.406249999999997  33.8415545590434 0.187500000000002  34.4394618834081 0.187500000000002  C 35.0373692077728 0.187500000000002  35.5455904334828 0.406249999999997  35.9641255605381 0.843749999999998  L 39.372197309417 4.40625  C 39.7907324364723 4.84374999999999  40 5.375  40 6  Z " fill-rule="nonzero" fill="#015478" stroke="none" transform="matrix(1 0 0 1 251 508 )" />
  </g>
</svg>