<?xml version="1.0" encoding="utf-8"?>
<svg version="1.1" xmlns:xlink="http://www.w3.org/1999/xlink" width="245px" height="170px" xmlns="http://www.w3.org/2000/svg">
  <g transform="matrix(1 0 0 1 -233 -288 )">
    <path d="M 233 288  L 478 288  L 478 458  L 233 458  L 233 288  " fill-rule="nonzero" fill="#cccccc" stroke="none" />
    <path d="M 245 300  L 466 300  L 466 446  L 245 446  L 245 300  " fill-rule="nonzero" fill="#ffffff" stroke="none" />
    <path d="M 373.15 339  C 366.01 339  360.4 333.39  360.4 326.25  C 360.4 319.11  366.01 313.5  373.15 313.5  C 380.29 313.5  385.9 319.11  385.9 326.25  C 385.9 333.39  380.29 339  373.15 339  " fill-rule="nonzero" fill="#cccccc" stroke="none" />
    <path d="M 250 442  L 250 366.65  L 303 332.4  L 377.2 384.963265306122  L 419.6 352.95  L 462 384.963265306122  L 462 442  L 250 442  " fill-rule="nonzero" fill="#169bd5" stroke="none" />
  </g>
</svg>