<?xml version="1.0" encoding="utf-8"?>
<svg version="1.1" xmlns:xlink="http://www.w3.org/1999/xlink" width="40px" height="38px" xmlns="http://www.w3.org/2000/svg">
  <g transform="matrix(1 0 0 1 -412 -503 )">
    <path d="M 14.2897727272727 14.47265625  C 14.4602272727273 14.62109375  14.5454545454545 14.8107638888889  15 15.0416666666667  L 15 29.2916666666667  C 14.5454545454545 29.5225694444444  14.4602272727273 29.7122395833333  14.2897727272727 29.8606770833333  C 14.1193181818182 30.0091145833333  13.9015151515152 30.0833333333333  13.6363636363636 30.0833333333333  L 11.8181818181818 30.0833333333333  C 11.5530303030303 30.0833333333333  11.3352272727273 30.0091145833333  11.1647727272727 29.8606770833333  C 10.9943181818182 29.7122395833333  10.9090909090909 29.5225694444444  11 29.2916666666667  L 11 15.0416666666667  C 10.9090909090909 14.8107638888889  10.9943181818182 14.62109375  11.1647727272727 14.47265625  C 11.3352272727273 14.32421875  11.5530303030303 14.25  11.8181818181818 14.25  L 13.6363636363636 14.25  C 13.9015151515152 14.25  14.1193181818182 14.32421875  14.2897727272727 14.47265625  Z M 21.5625 14.47265625  C 21.7329545454545 14.62109375  21.8181818181818 14.8107638888889  21.8181818181818 15.0416666666667  L 21.8181818181818 29.2916666666667  C 21.8181818181818 29.5225694444444  21.7329545454545 29.7122395833333  21.5625 29.8606770833333  C 21.3920454545455 30.0091145833333  21.1742424242424 30.0833333333333  20.9090909090909 30.0833333333333  L 19.0909090909091 30.0833333333333  C 18.8257575757576 30.0833333333333  18.6079545454545 30.0091145833333  18.4375 29.8606770833333  C 18.2670454545455 29.7122395833333  18.1818181818182 29.5225694444444  18.1818181818182 29.2916666666667  L 18.1818181818182 15.0416666666667  C 18.1818181818182 14.8107638888889  18.2670454545455 14.62109375  18.4375 14.47265625  C 18.6079545454545 14.32421875  18.8257575757576 14.25  19.0909090909091 14.25  L 20.9090909090909 14.25  C 21.1742424242424 14.25  21.3920454545455 14.32421875  21.5625 14.47265625  Z M 28.8352272727273 14.47265625  C 29.0056818181818 14.62109375  29.0909090909091 14.8107638888889  29 15.0416666666667  L 29 29.2916666666667  C 29.0909090909091 29.5225694444444  29.0056818181818 29.7122395833333  28.8352272727273 29.8606770833333  C 28.6647727272727 30.0091145833333  28.4469696969697 30.0833333333333  28.1818181818182 30.0833333333333  L 26.3636363636364 30.0833333333333  C 26.0984848484848 30.0833333333333  25.8806818181818 30.0091145833333  25.7102272727273 29.8606770833333  C 25.5397727272727 29.7122395833333  25.4545454545455 29.5225694444444  25 29.2916666666667  L 25 15.0416666666667  C 25.4545454545455 14.8107638888889  25.5397727272727 14.62109375  25.7102272727273 14.47265625  C 25.8806818181818 14.32421875  26.0984848484848 14.25  26.3636363636364 14.25  L 28.1818181818182 14.25  C 28.4469696969697 14.25  28.6647727272727 14.32421875  28.8352272727273 14.47265625  Z M 32.5284090909091 33.955078125  C 32.6609848484849 33.6499565972222  32.7272727272727 33.3159722222222  32 32.953125  L 32 10  L 8 10  L 8 32.953125  C 7.27272727272727 33.3159722222222  7.33901515151515 33.6499565972222  7.47159090909091 33.955078125  C 7.60416666666667 34.2601996527778  7.74147727272727 34.4828559027778  7.88352272727273 34.623046875  C 8.02556818181818 34.7632378472222  8.125 34.8333333333333  8.18181818181818 34.8333333333333  L 31.8181818181818 34.8333333333333  C 31.875 34.8333333333333  31.9744318181818 34.7632378472222  32.1164772727273 34.623046875  C 32.2585227272727 34.4828559027778  32.3958333333333 34.2601996527778  32.5284090909091 33.955078125  Z M 15.0284090909091 3.43880208333333  L 13.6363636363636 7  L 26.3636363636364 7  L 25 3.43880208333333  C 24.8674242424242 3.29036458333333  24.7064393939394 3.19965277777778  24.5170454545455 3.16666666666667  L 15.5113636363636 3.16666666666667  C 15.3219696969697 3.19965277777778  15.1609848484849 3.29036458333333  15.0284090909091 3.43880208333333  Z M 39.7443181818182 6.55598958333333  C 39.9147727272727 6.70442708333333  40 6.89409722222222  40 7.125  L 40 8.70833333333333  C 40 8.93923611111111  39.9147727272727 9.12890625  39.7443181818182 9.27734375  C 39.5738636363636 9.42578125  39.3560606060606 9.5  39.0909090909091 9.5  L 36 9.5  L 36 32.953125  C 36.3636363636364 34.3220486111111  35.9185606060606 35.5054253472222  35.0284090909091 36.5032552083333  C 34.1382575757576 37.5010850694444  33.0681818181818 38  31.8181818181818 38  L 8.18181818181818 38  C 6.93181818181818 38  5.86174242424243 37.517578125  4.97159090909091 36.552734375  C 4.08143939393939 35.587890625  3.63636363636364 34.4210069444444  4 33.0520833333333  L 4 9.5  L 0.909090909090909 9.5  C 0.643939393939394 9.5  0.426136363636364 9.42578125  0.255681818181818 9.27734375  C 0.0852272727272727 9.12890625  0 8.93923611111111  0 8.70833333333333  L 0 7.125  C 0 6.89409722222222  0.0852272727272727 6.70442708333333  0.255681818181818 6.55598958333333  C 0.426136363636364 6.40755208333333  0.643939393939394 6.33333333333333  0.909090909090909 6.33333333333333  L 9.6875 6.33333333333333  L 11.6761363636364 2.20182291666667  C 11.9602272727273 1.59157986111111  12.4715909090909 1.07204861111111  13.2102272727273 0.643229166666668  C 13.9488636363636 0.21440972222222  14.6969696969697 0  15.4545454545455 0  L 24.5454545454545 0  C 25.3030303030303 0  26.0511363636364 0.21440972222222  26.7897727272727 0.643229166666668  C 27.5284090909091 1.07204861111111  28.0397727272727 1.59157986111111  28.3238636363636 2.20182291666667  L 30.3125 6.33333333333333  L 39.0909090909091 6.33333333333333  C 39.3560606060606 6.33333333333333  39.5738636363636 6.40755208333333  39.7443181818182 6.55598958333333  Z " fill-rule="nonzero" fill="#015478" stroke="none" transform="matrix(1 0 0 1 412 503 )" />
  </g>
</svg>