<?xml version="1.0" encoding="utf-8"?>
<svg version="1.1" xmlns:xlink="http://www.w3.org/1999/xlink" width="119px" height="40px" xmlns="http://www.w3.org/2000/svg">
  <defs>
    <mask fill="white" id="clip273">
      <path d="M 0 35  L 0 5  C 0 2.19999999999999  2.19999999999999 0  5 0  L 114 0  C 116.8 0  119 2.19999999999999  119 5  L 119 35  C 119 37.8  116.8 40  114 40  L 57.8125 40  L 5 40  C 2.19999999999999 40  0 37.8  0 35  Z " fill-rule="evenodd" />
    </mask>
  </defs>
  <g transform="matrix(1 0 0 1 -250 -205 )">
    <path d="M 0 35  L 0 5  C 0 2.19999999999999  2.19999999999999 0  5 0  L 114 0  C 116.8 0  119 2.19999999999999  119 5  L 119 35  C 119 37.8  116.8 40  114 40  L 57.8125 40  L 5 40  C 2.19999999999999 40  0 37.8  0 35  Z " fill-rule="nonzero" fill="#ffffff" stroke="none" transform="matrix(1 0 0 1 250 205 )" />
    <path d="M 0 35  L 0 5  C 0 2.19999999999999  2.19999999999999 0  5 0  L 114 0  C 116.8 0  119 2.19999999999999  119 5  L 119 35  C 119 37.8  116.8 40  114 40  L 57.8125 40  L 5 40  C 2.19999999999999 40  0 37.8  0 35  Z " stroke-width="4" stroke="#008080" fill="none" transform="matrix(1 0 0 1 250 205 )" mask="url(#clip273)" />
  </g>
</svg>