<?xml version="1.0" encoding="utf-8"?>
<svg version="1.1" xmlns:xlink="http://www.w3.org/1999/xlink" width="237px" height="134px" xmlns="http://www.w3.org/2000/svg">
  <g transform="matrix(1 0 0 1 -233 -284 )">
    <path d="M 233 284  L 470 284  L 470 418  L 233 418  L 233 284  " fill-rule="nonzero" fill="#cccccc" stroke="none" />
    <path d="M 242 293  L 461 293  L 461 409  L 242 409  L 242 293  " fill-rule="nonzero" fill="#ffffff" stroke="none" />
    <path d="M 366.29 324.2  C 360.662 324.2  356.24 319.778  356.24 314.15  C 356.24 308.522  360.662 304.1  366.29 304.1  C 371.918 304.1  376.34 308.522  376.34 314.15  C 376.34 319.778  371.918 324.2  366.29 324.2  " fill-rule="nonzero" fill="#cccccc" stroke="none" />
    <path d="M 246 406  L 246 346.05  L 299 318.8  L 373.2 369.022784810127  L 415.6 335.15  L 458 369.022784810127  L 458 406  L 246 406  " fill-rule="nonzero" fill="#169bd5" stroke="none" />
  </g>
</svg>