<?xml version="1.0" encoding="utf-8"?>
<svg version="1.1" xmlns:xlink="http://www.w3.org/1999/xlink" width="106px" height="109px" xmlns="http://www.w3.org/2000/svg">
  <defs>
    <filter x="326px" y="651px" width="106px" height="109px" filterUnits="userSpaceOnUse" id="filter269">
      <feOffset dx="1" dy="1" in="SourceAlpha" result="shadowOffsetInner" />
      <feGaussianBlur stdDeviation="2.5" in="shadowOffsetInner" result="shadowGaussian" />
      <feComposite in2="shadowGaussian" operator="atop" in="SourceAlpha" result="shadowComposite" />
      <feColorMatrix type="matrix" values="0 0 0 0 0  0 0 0 0 0  0 0 0 0 0  0 0 0 0.698039215686274 0  " in="shadowComposite" />
    </filter>
    <g id="widget270">
      <path d="M 378 655  C 404.88 655  426 676.78  426 704.5  C 426 732.22  404.88 754  378 754  C 351.12 754  330 732.22  330 704.5  C 330 676.78  351.12 655  378 655  Z " fill-rule="nonzero" fill="#bfbf00" stroke="none" />
      <path d="M 378 655.5  C 404.6 655.5  425.5 677.06  425.5 704.5  C 425.5 731.94  404.6 753.5  378 753.5  C 351.4 753.5  330.5 731.94  330.5 704.5  C 330.5 677.06  351.4 655.5  378 655.5  Z " stroke-width="1" stroke="#ffffff" fill="none" />
    </g>
  </defs>
  <g transform="matrix(1 0 0 1 -326 -651 )">
    <use xlink:href="#widget270" filter="url(#filter269)" />
    <use xlink:href="#widget270" />
  </g>
</svg>