<?xml version="1.0" encoding="utf-8"?>
<svg version="1.1" xmlns:xlink="http://www.w3.org/1999/xlink" width="106px" height="109px" xmlns="http://www.w3.org/2000/svg">
  <defs>
    <filter x="326px" y="1015px" width="106px" height="109px" filterUnits="userSpaceOnUse" id="filter271">
      <feOffset dx="1" dy="1" in="SourceAlpha" result="shadowOffsetInner" />
      <feGaussianBlur stdDeviation="2.5" in="shadowOffsetInner" result="shadowGaussian" />
      <feComposite in2="shadowGaussian" operator="atop" in="SourceAlpha" result="shadowComposite" />
      <feColorMatrix type="matrix" values="0 0 0 0 0  0 0 0 0 0  0 0 0 0 0  0 0 0 0.698039215686274 0  " in="shadowComposite" />
    </filter>
    <g id="widget272">
      <path d="M 378 1019  C 404.88 1019  426 1040.78  426 1068.5  C 426 1096.22  404.88 1118  378 1118  C 351.12 1118  330 1096.22  330 1068.5  C 330 1040.78  351.12 1019  378 1019  Z " fill-rule="nonzero" fill="#000080" stroke="none" fill-opacity="0.996078431372549" />
      <path d="M 378 1019.5  C 404.6 1019.5  425.5 1041.06  425.5 1068.5  C 425.5 1095.94  404.6 1117.5  378 1117.5  C 351.4 1117.5  330.5 1095.94  330.5 1068.5  C 330.5 1041.06  351.4 1019.5  378 1019.5  Z " stroke-width="1" stroke="#ffffff" fill="none" />
    </g>
  </defs>
  <g transform="matrix(1 0 0 1 -326 -1015 )">
    <use xlink:href="#widget272" filter="url(#filter271)" />
    <use xlink:href="#widget272" />
  </g>
</svg>