<?xml version="1.0" encoding="utf-8"?>
<svg version="1.1" xmlns:xlink="http://www.w3.org/1999/xlink" width="106px" height="109px" xmlns="http://www.w3.org/2000/svg">
  <defs>
    <filter x="326px" y="287px" width="106px" height="109px" filterUnits="userSpaceOnUse" id="filter267">
      <feOffset dx="1" dy="1" in="SourceAlpha" result="shadowOffsetInner" />
      <feGaussianBlur stdDeviation="2.5" in="shadowOffsetInner" result="shadowGaussian" />
      <feComposite in2="shadowGaussian" operator="atop" in="SourceAlpha" result="shadowComposite" />
      <feColorMatrix type="matrix" values="0 0 0 0 0  0 0 0 0 0  0 0 0 0 0  0 0 0 0.698039215686274 0  " in="shadowComposite" />
    </filter>
    <g id="widget268">
      <path d="M 378 291  C 404.88 291  426 312.78  426 340.5  C 426 368.22  404.88 390  378 390  C 351.12 390  330 368.22  330 340.5  C 330 312.78  351.12 291  378 291  Z " fill-rule="nonzero" fill="#b8741a" stroke="none" />
      <path d="M 378 291.5  C 404.6 291.5  425.5 313.06  425.5 340.5  C 425.5 367.94  404.6 389.5  378 389.5  C 351.4 389.5  330.5 367.94  330.5 340.5  C 330.5 313.06  351.4 291.5  378 291.5  Z " stroke-width="1" stroke="#ffffff" fill="none" />
    </g>
  </defs>
  <g transform="matrix(1 0 0 1 -326 -287 )">
    <use xlink:href="#widget268" filter="url(#filter267)" />
    <use xlink:href="#widget268" />
  </g>
</svg>