<?xml version="1.0" encoding="utf-8"?>
<svg version="1.1" xmlns:xlink="http://www.w3.org/1999/xlink" width="14px" height="6px" xmlns="http://www.w3.org/2000/svg">
  <g transform="matrix(1 0 0 1 -1374 -441 )">
    <path d="M 13.740234375 4.86458333333333  C 13.9134114583333 4.99652777777778  14 5.15277777777778  14 5.33333333333333  C 14 5.51388888888889  13.9134114583333 5.67013888888889  13.740234375 5.80208333333333  C 13.5670572916667 5.93402777777778  13.3619791666667 6  13.125 6  L 0.875 6  C 0.638020833333333 6  0.432942708333333 5.93402777777778  0.259765625 5.80208333333333  C 0.0865885416666667 5.67013888888889  0 5.51388888888889  0 5.33333333333333  C 0 5.15277777777778  0.0865885416666667 4.99652777777778  0.259765625 4.86458333333333  L 6.384765625 0.197916666666667  C 6.55794270833333 0.0659722222222214  6.76302083333333 0  7 0  C 7.23697916666667 0  7.44205729166667 0.0659722222222214  7.615234375 0.197916666666667  L 13.740234375 4.86458333333333  Z " fill-rule="nonzero" fill="#333333" stroke="none" transform="matrix(1 0 0 1 1374 441 )" />
  </g>
</svg>