<?xml version="1.0" encoding="utf-8"?>
<svg version="1.1" xmlns:xlink="http://www.w3.org/1999/xlink" width="14px" height="6px" xmlns="http://www.w3.org/2000/svg">
  <g transform="matrix(1 0 0 1 -1374 -441 )">
    <path d="M 13.740234375 0.197916666666667  C 13.9134114583333 0.32986111111111  14 0.486111111111111  14 0.666666666666667  C 14 0.847222222222222  13.9134114583333 1.00347222222222  13.740234375 1.13541666666667  L 7.615234375 5.80208333333333  C 7.44205729166667 5.93402777777778  7.23697916666667 6  7 6  C 6.76302083333333 6  6.55794270833333 5.93402777777778  6.384765625 5.80208333333333  L 0.259765625 1.13541666666667  C 0.0865885416666667 1.00347222222222  0 0.847222222222222  0 0.666666666666667  C 0 0.486111111111111  0.0865885416666667 0.32986111111111  0.259765625 0.197916666666667  C 0.432942708333333 0.0659722222222214  0.638020833333333 0  0.875 0  L 13.125 0  C 13.3619791666667 0  13.5670572916667 0.0659722222222214  13.740234375 0.197916666666667  Z " fill-rule="nonzero" fill="#333333" stroke="none" transform="matrix(1 0 0 1 1374 441 )" />
  </g>
</svg>