<?xml version="1.0" encoding="utf-8"?>
<svg version="1.1" xmlns:xlink="http://www.w3.org/1999/xlink" width="22px" height="23px" xmlns="http://www.w3.org/2000/svg">
  <g transform="matrix(1 0 0 1 -1327 -24 )">
    <path d="M 11 21.9732142857143  C 11.1410256410256 21.9732142857143  11.2115384615385 21.9047619047619  11.2115384615385 21.7678571428571  C 11.2115384615385 21.6309523809524  11.1410256410256 21.5625  11 21.5625  C 10.4799679487179 21.5625  10.0326522435897 21.3806733630952  9.65805288461539 21.0170200892857  C 9.28345352564103 20.6533668154762  9.09615384615384 20.2191220238095  9.09615384615384 19.7142857142857  C 9.09615384615384 19.577380952381  9.02564102564103 19.5089285714286  8.88461538461539 19.5089285714286  C 8.74358974358974 19.5089285714286  8.67307692307692 19.577380952381  8.67307692307692 19.7142857142857  C 8.67307692307692 20.3389136904762  8.90004006410256 20.8715587797619  9.35396634615384 21.3122209821429  C 9.80789262820513 21.7528831845238  10.3565705128205 21.9732142857143  11 21.9732142857143  Z M 5.92307692307692 7.39285714285714  C 5.92307692307692 11.9449404761905  4.75080128205128 15.5044642857143  2.40625 18  L 19.59375 18  C 17.2491987179487 15.5044642857143  16.0769230769231 11.9449404761905  16.0769230769231 7.39285714285714  C 16.0769230769231 6.95647321428571  15.9711538461538 6.50725446428571  15.7596153846154 6.04520089285714  C 15.5480769230769 5.58314732142857  15.2439903846154 5.14248511904762  14.8473557692308 4.72321428571429  C 14.4507211538462 4.30394345238095  13.9152644230769 3.95954241071429  13.2409855769231 3.69001116071429  C 12.5667067307692 3.42047991071429  11.8197115384615 3.28571428571429  11 3.28571428571429  C 10.1802884615385 3.28571428571429  9.43329326923077 3.42047991071429  8.75901442307692 3.69001116071429  C 8.08473557692308 3.95954241071429  7.54927884615385 4.30394345238095  7.15264423076923 4.72321428571429  C 6.75600961538462 5.14248511904762  6.45192307692308 5.58314732142857  6.24038461538462 6.04520089285714  C 6.02884615384615 6.50725446428571  5.92307692307692 6.95647321428571  5.92307692307692 7.39285714285714  Z M 20.796875 16.9419642857143  C 21.1582532051282 17.3355654761905  21.5592948717949 17.7120535714286  22 18.0714285714286  C 22 18.516369047619  21.8325320512821 18.9014136904762  21.4975961538462 19.2265625  C 21.1626602564103 19.5517113095238  20.7660256410256 19.7142857142857  20.3076923076923 19.7142857142857  L 14.3846153846154 19.7142857142857  C 14.3846153846154 20.6212797619048  14.0540865384615 21.3956473214286  13.3930288461538 22.0373883928571  C 12.7319711538462 22.6791294642857  11.9342948717949 23  11 23  C 10.0657051282051 23  9.26802884615384 22.6791294642857  8.60697115384616 22.0373883928571  C 7.94591346153846 21.3956473214286  7.61538461538462 20.6212797619048  7.61538461538462 19.7142857142857  L 1.69230769230769 19.7142857142857  C 1.23397435897436 19.7142857142857  0.837339743589744 19.5517113095238  0.502403846153846 19.2265625  C 0.167467948717949 18.9014136904762  0 18.516369047619  0 18.0714285714286  C 0.440705128205128 17.7120535714286  0.841746794871795 17.3355654761905  1.203125 16.9419642857143  C 1.56450320512821 16.5483630952381  1.93910256410256 16.037109375  2.32692307692308 15.408203125  C 2.71474358974359 14.779296875  3.04306891025641 14.1011904761905  3.31189903846154 13.3738839285714  C 3.58072916666667 12.6465773809524  3.80108173076923 11.7652529761905  3.97295673076923 10.7299107142857  C 4.14483173076923 9.69456845238095  4.23076923076923 8.58221726190476  4.23076923076923 7.39285714285714  C 4.23076923076923 6.0922619047619  4.74639423076923 4.88364955357143  5.77764423076923 3.76702008928571  C 6.80889423076923 2.650390625  8.16185897435897 1.97228422619047  9.83653846153846 1.73270089285714  C 9.76602564102564 1.57012648809524  9.73076923076923 1.40327380952381  9.73076923076923 1.23214285714286  C 9.73076923076923 0.889880952380952  9.85416666666667 0.598958333333332  10.1009615384615 0.359375  C 10.3477564102564 0.119791666666668  10.6474358974359 0  11 0  C 11.3525641025641 0  11.6522435897436 0.119791666666668  11.8990384615385 0.359375  C 12.1458333333333 0.598958333333332  12.2692307692308 0.889880952380952  12.2692307692308 1.23214285714286  C 12.2692307692308 1.40327380952381  12.2339743589744 1.57012648809524  12.1634615384615 1.73270089285714  C 13.838141025641 1.97228422619047  15.1911057692308 2.650390625  16.2223557692308 3.76702008928571  C 17.2536057692308 4.88364955357143  17.7692307692308 6.0922619047619  17.7692307692308 7.39285714285714  C 17.7692307692308 8.58221726190476  17.8551682692308 9.69456845238095  18.0270432692308 10.7299107142857  C 18.1989182692308 11.7652529761905  18.4192708333333 12.6465773809524  18.6881009615385 13.3738839285714  C 18.9569310897436 14.1011904761905  19.2852564102564 14.779296875  19.6730769230769 15.408203125  C 20.0608974358974 16.037109375  20.4354967948718 16.5483630952381  20.796875 16.9419642857143  Z " fill-rule="nonzero" fill="#015478" stroke="none" transform="matrix(1 0 0 1 1327 24 )" />
  </g>
</svg>