<?xml version="1.0" encoding="utf-8"?>
<svg version="1.1" xmlns:xlink="http://www.w3.org/1999/xlink" width="20px" height="20px" xmlns="http://www.w3.org/2000/svg">
  <g transform="matrix(1 0 0 1 -314 -959 )">
    <path d="M 322.118131381105 966.40983005625  L 324 960.61803398875  L 325.881868618895 966.40983005625  L 331.971723394364 966.40983005625  L 327.044927387734 969.989356881874  L 328.92679600663 975.781152949374  L 324 972.201626123751  L 319.07320399337 975.781152949374  L 320.955072612266 969.989356881874  L 316.028276605636 966.40983005625  L 322.118131381105 966.40983005625  Z " fill-rule="nonzero" fill="#ffffff" stroke="none" />
    <path d="M 321.754860117102 965.90983005625  L 324 959  L 326.245139882898 965.90983005625  L 333.510565162952 965.90983005625  L 327.632712640027 970.180339887499  L 329.877852522925 977.09016994375  L 324 972.819660112501  L 318.122147477075 977.09016994375  L 320.367287359973 970.180339887499  L 314.489434837048 965.90983005625  L 321.754860117102 965.90983005625  Z M 324 962.2360679775  L 322.481402645107 966.90983005625  L 317.567118374224 966.90983005625  L 321.542857864558 969.798373876249  L 320.024260509666 974.472135955  L 324 971.583592135001  L 327.975739490334 974.472135955  L 326.457142135442 969.798373876249  L 330.432881625776 966.90983005625  L 325.518597354893 966.90983005625  L 324 962.2360679775  Z " fill-rule="nonzero" fill="#333333" stroke="none" />
  </g>
</svg>