<?xml version="1.0" encoding="utf-8"?>
<svg version="1.1" xmlns:xlink="http://www.w3.org/1999/xlink" width="119px" height="60px" xmlns="http://www.w3.org/2000/svg">
  <defs>
    <mask fill="white" id="clip129">
      <path d="M 102.799504950495 0.254237288135599  L 14.4331683168317 0.254237288135599  C 14.4331683168317 0.254237288135599  0.911557602373318 13.3329471532765  0.883663366336635 30  C 0.855562519787157 46.7905044562601  14.4331683168317 60  14.4331683168317 60  L 102.799504950495 60  C 102.799504950495 60  117.852013191624 46.7886742939947  117.821782178218 30  C 117.791766890278 13.3311279944478  102.799504950495 0.254237288135599  102.799504950495 0.254237288135599  Z " fill-rule="evenodd" />
    </mask>
  </defs>
  <g transform="matrix(1 0 0 1 -152 -65 )">
    <path d="M 102.799504950495 0.254237288135599  L 14.4331683168317 0.254237288135599  C 14.4331683168317 0.254237288135599  0.911557602373318 13.3329471532765  0.883663366336635 30  C 0.855562519787157 46.7905044562601  14.4331683168317 60  14.4331683168317 60  L 102.799504950495 60  C 102.799504950495 60  117.852013191624 46.7886742939947  117.821782178218 30  C 117.791766890278 13.3311279944478  102.799504950495 0.254237288135599  102.799504950495 0.254237288135599  Z " fill-rule="nonzero" fill="#ffffff" stroke="none" transform="matrix(1 0 0 1 152 65 )" />
    <path d="M 102.799504950495 0.254237288135599  L 14.4331683168317 0.254237288135599  C 14.4331683168317 0.254237288135599  0.911557602373318 13.3329471532765  0.883663366336635 30  C 0.855562519787157 46.7905044562601  14.4331683168317 60  14.4331683168317 60  L 102.799504950495 60  C 102.799504950495 60  117.852013191624 46.7886742939947  117.821782178218 30  C 117.791766890278 13.3311279944478  102.799504950495 0.254237288135599  102.799504950495 0.254237288135599  Z " stroke-width="4" stroke="#a30014" fill="none" transform="matrix(1 0 0 1 152 65 )" mask="url(#clip129)" />
  </g>
</svg>