<?xml version="1.0" encoding="utf-8"?>
<svg version="1.1" xmlns:xlink="http://www.w3.org/1999/xlink" width="152px" height="82px" xmlns="http://www.w3.org/2000/svg">
  <defs>
    <mask fill="white" id="clip130">
      <path d="M 131.306930693069 0.347457627118652  L 18.4356435643564 0.347457627118652  C 18.4356435643564 0.347457627118652  1.16434248370373 18.2216944428112  1.12871287128713 41  C 1.09281935300544 63.9470227568888  18.4356435643564 82  18.4356435643564 82  L 131.306930693069 82  C 131.306930693069 82  150.533663908629 63.9445215351262  150.495049504951 41  C 150.456710649767 18.2192082590786  131.306930693069 0.347457627118652  131.306930693069 0.347457627118652  Z " fill-rule="evenodd" />
    </mask>
  </defs>
  <g transform="matrix(1 0 0 1 -510 -149 )">
    <path d="M 131.306930693069 0.347457627118652  L 18.4356435643564 0.347457627118652  C 18.4356435643564 0.347457627118652  1.16434248370373 18.2216944428112  1.12871287128713 41  C 1.09281935300544 63.9470227568888  18.4356435643564 82  18.4356435643564 82  L 131.306930693069 82  C 131.306930693069 82  150.533663908629 63.9445215351262  150.495049504951 41  C 150.456710649767 18.2192082590786  131.306930693069 0.347457627118652  131.306930693069 0.347457627118652  Z " fill-rule="nonzero" fill="#ffffff" stroke="none" transform="matrix(1 0 0 1 510 149 )" />
    <path d="M 131.306930693069 0.347457627118652  L 18.4356435643564 0.347457627118652  C 18.4356435643564 0.347457627118652  1.16434248370373 18.2216944428112  1.12871287128713 41  C 1.09281935300544 63.9470227568888  18.4356435643564 82  18.4356435643564 82  L 131.306930693069 82  C 131.306930693069 82  150.533663908629 63.9445215351262  150.495049504951 41  C 150.456710649767 18.2192082590786  131.306930693069 0.347457627118652  131.306930693069 0.347457627118652  Z " stroke-width="4" stroke="#a30014" fill="none" transform="matrix(1 0 0 1 510 149 )" mask="url(#clip130)" />
  </g>
</svg>