<?xml version="1.0" encoding="utf-8"?>
<svg version="1.1" xmlns:xlink="http://www.w3.org/1999/xlink" width="7px" height="6px" xmlns="http://www.w3.org/2000/svg">
  <g transform="matrix(1 0 0 1 -635 -215 )">
    <path d="M 6.8701171875 0.197916666666667  C 6.95670572916667 0.32986111111111  7 0.486111111111111  7 0.666666666666667  C 7 0.847222222222222  6.95670572916667 1.00347222222222  6.8701171875 1.13541666666667  L 3.8076171875 5.80208333333333  C 3.72102864583333 5.93402777777778  3.61848958333333 6  3.5 6  C 3.38151041666667 6  3.27897135416667 5.93402777777778  3.1923828125 5.80208333333333  L 0.1298828125 1.13541666666667  C 0.0432942708333333 1.00347222222222  0 0.847222222222222  0 0.666666666666667  C 0 0.486111111111111  0.0432942708333333 0.32986111111111  0.1298828125 0.197916666666667  C 0.216471354166667 0.0659722222222214  0.319010416666667 0  0.4375 0  L 6.5625 0  C 6.68098958333333 0  6.78352864583333 0.0659722222222214  6.8701171875 0.197916666666667  Z " fill-rule="nonzero" fill="#333333" stroke="none" transform="matrix(1 0 0 1 635 215 )" />
  </g>
</svg>