<?xml version="1.0" encoding="utf-8"?>
<svg version="1.1" xmlns:xlink="http://www.w3.org/1999/xlink" width="7px" height="6px" xmlns="http://www.w3.org/2000/svg">
  <g transform="matrix(1 0 0 1 -635 -215 )">
    <path d="M 6.8701171875 4.86458333333333  C 6.95670572916667 4.99652777777778  7 5.15277777777778  7 5.33333333333333  C 7 5.51388888888889  6.95670572916667 5.67013888888889  6.8701171875 5.80208333333333  C 6.78352864583333 5.93402777777778  6.68098958333333 6  6.5625 6  L 0.4375 6  C 0.319010416666667 6  0.216471354166667 5.93402777777778  0.1298828125 5.80208333333333  C 0.0432942708333333 5.67013888888889  0 5.51388888888889  0 5.33333333333333  C 0 5.15277777777778  0.0432942708333333 4.99652777777778  0.1298828125 4.86458333333333  L 3.1923828125 0.197916666666667  C 3.27897135416667 0.0659722222222214  3.38151041666667 0  3.5 0  C 3.61848958333333 0  3.72102864583333 0.0659722222222214  3.8076171875 0.197916666666667  L 6.8701171875 4.86458333333333  Z " fill-rule="nonzero" fill="#333333" stroke="none" transform="matrix(1 0 0 1 635 215 )" />
  </g>
</svg>