<?xml version="1.0" encoding="utf-8"?>
<svg version="1.1" xmlns:xlink="http://www.w3.org/1999/xlink" width="3px" height="4px" xmlns="http://www.w3.org/2000/svg">
  <g transform="matrix(1 0 0 1 -833 -242 )">
    <path d="M 2.90104166666667 0.07421875  C 2.96701388888889 0.123697916666666  3 0.182291666666666  3 0.25  L 3 3.75  C 3 3.81770833333333  2.96701388888889 3.87630208333333  2.90104166666667 3.92578125  C 2.83506944444444 3.97526041666667  2.75694444444444 4  2.66666666666667 4  C 2.57638888888889 4  2.49826388888889 3.97526041666667  2.43229166666667 3.92578125  L 0.0989583333333333 2.17578125  C 0.0329861111111112 2.12630208333333  0 2.06770833333333  0 2  C 0 1.93229166666667  0.0329861111111112 1.87369791666667  0.0989583333333333 1.82421875  L 2.43229166666667 0.07421875  C 2.49826388888889 0.024739583333333  2.57638888888889 0  2.66666666666667 0  C 2.75694444444444 0  2.83506944444444 0.024739583333333  2.90104166666667 0.07421875  Z " fill-rule="nonzero" fill="#333333" stroke="none" transform="matrix(1 0 0 1 833 242 )" />
  </g>
</svg>